<svg width="24" height="24" viewBox="0 0 24 24" fill="none" xmlns="http://www.w3.org/2000/svg">
<g clip-path="url(#clip0_464_222)">
<path d="M2.42773 2.58984C4.89648 -0.110292 8.82973 -0.192591 11.3867 2.33496V2.33398C11.733 2.68561 12.2832 2.66124 12.6123 2.33594C15.1693 -0.19152 19.1036 -0.110536 21.5723 2.58887V2.58984C24.1418 5.40115 24.1424 9.97557 21.5732 12.7871L13.1064 22.0479C12.7513 22.4363 12.5189 22.6882 12.3242 22.8496C12.1407 23.0018 12.0548 23.0176 11.999 23.0176L11.9512 23.0127C11.8949 23.0012 11.8118 22.9641 11.6738 22.8496C11.5765 22.7689 11.4695 22.6659 11.3428 22.5342L10.8926 22.0479L2.42773 12.7881V12.7871C-0.0621873 10.0633 -0.140149 5.68547 2.19434 2.8584L2.42773 2.58984Z" stroke="black"/>
</g>
<defs>
<clipPath id="clip0_464_222">
<rect width="24" height="24" fill="white"/>
</clipPath>
</defs>
</svg>
