<svg width="24" height="24" viewBox="0 0 24 24" fill="none" xmlns="http://www.w3.org/2000/svg">
<g clip-path="url(#clip0_464_233)">
<path d="M3.83398 4.86328H20.166C20.4328 4.86328 20.6037 4.86361 20.7344 4.87402C20.7963 4.87897 20.8395 4.88566 20.8701 4.89258L20.9316 4.91309C20.994 4.94316 21.049 4.98589 21.0938 5.03809L21.1357 5.09277C21.1508 5.1162 21.1733 5.16203 21.1982 5.28418C21.2113 5.34843 21.2228 5.42306 21.2354 5.51465L21.2773 5.84766L23.2812 22.2441C23.3215 22.5735 23.348 22.7882 23.3535 22.9521C23.3562 23.0313 23.3526 23.0854 23.3477 23.123L23.3301 23.1953C23.2983 23.2698 23.2495 23.3359 23.1875 23.3867L23.1211 23.4326C23.0957 23.4473 23.0398 23.4704 22.8818 23.4844C22.7184 23.4988 22.5019 23.5 22.1699 23.5H1.83008C1.49807 23.5 1.2816 23.4988 1.11816 23.4844C1.03938 23.4774 0.986021 23.4685 0.949219 23.459L0.878906 23.4326C0.80864 23.3919 0.749976 23.3346 0.707031 23.2666L0.669922 23.1953C0.658416 23.1682 0.641179 23.1101 0.646484 22.9521C0.649239 22.8702 0.657756 22.7755 0.669922 22.6602L0.71875 22.2441L2.72168 5.84766C2.75407 5.58266 2.77554 5.4127 2.80176 5.28418C2.81425 5.22297 2.82629 5.18091 2.83691 5.15137L2.86426 5.09277C2.90163 5.03465 2.95072 4.98531 3.00781 4.94727L3.06738 4.91309C3.09245 4.901 3.1406 4.88395 3.26465 4.87402C3.39542 4.86358 3.56689 4.86328 3.83398 4.86328Z" stroke="black"/>
<path d="M7.19999 8.72727C7.19999 8.72727 6.38188 0 12.0005 0C17.6191 0 16.8001 8.72727 16.8001 8.72727" stroke="black" stroke-linecap="round"/>
</g>
<defs>
<clipPath id="clip0_464_233">
<rect width="24" height="24" fill="white"/>
</clipPath>
</defs>
</svg>
