<svg width="25" height="24" viewBox="0 0 25 24" fill="none" xmlns="http://www.w3.org/2000/svg">
<g clip-path="url(#clip0_495_301)">
<path d="M19.6161 1.00293H17.7294L21.0058 9.72363H23.8632L23.9335 9.74512L24.0195 9.77832C24.2086 9.86816 24.321 10.0395 24.3818 10.1494C24.4674 10.3046 24.5409 10.5063 24.6015 10.7549C24.7232 11.2544 24.8114 12.0137 24.8115 13.1377V20.4453H20.6494C20.6556 20.5474 20.6591 20.6512 20.6591 20.7559L20.6484 21.0879C20.5412 22.7215 19.6526 23.9971 18.5722 23.9971L18.4648 23.9922C17.4335 23.9108 16.5996 22.6669 16.496 21.0879L16.4853 20.7559C16.4853 20.6512 16.4888 20.5474 16.4951 20.4453H9.17084C9.17709 20.5474 9.1806 20.6512 9.1806 20.7559L9.16986 21.0879C9.06272 22.7215 8.17405 23.9971 7.09369 23.9971L6.98627 23.9922C5.95512 23.9107 5.12105 22.6668 5.01752 21.0879L5.00677 20.7559C5.00678 20.6516 5.01033 20.548 5.01654 20.4463H0.855408V14.2754C0.855408 11.7958 2.04923 10.4301 2.94525 9.91309C2.96468 8.26558 3.14534 5.94016 3.85931 3.96484C4.6197 1.86131 6.05327 0.00292969 8.6601 0.00292969H19.6161V1.00293ZM7.09369 18.5156C6.972 18.5158 6.72432 18.5939 6.45892 19.0059C6.20005 19.4081 6.00682 20.0245 6.00677 20.7559C6.00685 21.4874 6.19993 22.1037 6.45892 22.5059C6.72437 22.918 6.97198 22.9969 7.09369 22.9971C7.2152 22.9971 7.46276 22.9182 7.72845 22.5059C7.98746 22.1037 8.18053 21.4874 8.1806 20.7559C8.18056 20.0243 7.98745 19.4081 7.72845 19.0059C7.46273 18.5934 7.21521 18.5156 7.09369 18.5156ZM18.5722 18.5156C18.4506 18.5157 18.203 18.5937 17.9374 19.0059C17.6785 19.4081 17.4853 20.0244 17.4853 20.7559C17.4854 21.4874 17.6784 22.1037 17.9374 22.5059C18.203 22.9182 18.4506 22.997 18.5722 22.9971C18.6937 22.9971 18.9412 22.9183 19.207 22.5059C19.466 22.1037 19.659 21.4874 19.6591 20.7559C19.6591 20.0243 19.4659 19.4081 19.207 19.0059C18.9412 18.5934 18.6937 18.5156 18.5722 18.5156ZM21.3818 10.7246H3.54779C3.01174 10.9814 1.85541 11.9927 1.85541 14.2754V19.4463H5.18549C5.50943 18.3092 6.24146 17.5159 7.09369 17.5156L7.20111 17.5195C8.00705 17.5829 8.69045 18.3567 9.00092 19.4453H16.665C16.9891 18.3088 17.7202 17.5158 18.5722 17.5156L18.6796 17.5195C19.4856 17.5829 20.169 18.3567 20.4794 19.4453H23.8115V13.1377C23.8114 12.0565 23.7255 11.3841 23.6298 10.9912C23.6008 10.8721 23.5701 10.7854 23.5458 10.7236H21.3818V10.7246ZM8.1601 1.0332C6.47457 1.24437 5.43932 2.53541 4.79974 4.30469C4.16823 6.05187 3.97941 8.14267 3.94818 9.72461H8.1601V1.0332ZM9.1601 9.72461H19.9374L16.662 1.00293H9.1601V9.72461Z" fill="black"/>
</g>
<defs>
<clipPath id="clip0_495_301">
<rect width="24" height="24" fill="white" transform="translate(0.833435)"/>
</clipPath>
</defs>
</svg>
