<svg width="25" height="26" viewBox="0 0 25 26" fill="none" xmlns="http://www.w3.org/2000/svg">
<g clip-path="url(#clip0_495_288)">
<path d="M15.54 1.57031C17.5022 0.140922 19.6252 0.344477 20.7803 1.77636L20.8936 1.92285C22.019 3.48701 21.6569 5.77602 19.7422 7.41015L19.5518 7.5664C19.3417 7.73217 19.0973 7.87631 18.8291 8.0039H24.5V25.4053H0.5V8.0039H6.16602C5.89856 7.87651 5.65489 7.7318 5.44531 7.5664L5.25488 7.41015C3.34027 5.77601 2.97806 3.48697 4.10352 1.92285L4.21582 1.77636C5.37081 0.344111 7.49473 0.140858 9.45703 1.57031L9.65332 1.71874C11.0254 2.80154 11.9954 5.56301 12.498 7.31738C13.0007 5.56306 13.9716 2.80168 15.3438 1.71874L15.54 1.57031ZM13.4229 24.4053H23.5V13.8037H13.4229V24.4053ZM1.5 24.4053H11.5771V13.8037H1.5V24.4053ZM13.4229 11.8711H23.5V9.0039H13.4229V11.8711ZM1.5 11.8711H11.5771V9.0039H1.5V11.8711ZM9.06934 2.53124C7.299 1.13415 5.64323 1.49475 4.88867 2.54296C4.13446 3.59141 4.25922 5.35775 6.0293 6.75488C6.38989 7.03945 6.96226 7.28319 7.70312 7.46777C8.4283 7.64841 9.23683 7.75375 10.0068 7.81054C10.6086 7.85493 11.1743 7.86932 11.6396 7.87011C11.5107 7.40206 11.3412 6.83731 11.1348 6.24413C10.8704 5.4846 10.5503 4.69881 10.1846 4.01855C9.81109 3.32396 9.42978 2.8158 9.06934 2.53124ZM20.1084 2.54199C19.3538 1.4939 17.6979 1.13334 15.9277 2.53027C15.5671 2.81486 15.1852 3.32353 14.8115 4.01855C14.4459 4.69867 14.1276 5.48379 13.8633 6.24316C13.6567 6.83654 13.4864 7.40191 13.3574 7.87011C13.8227 7.86931 14.3886 7.85491 14.9902 7.81054C15.7599 7.75377 16.5681 7.64924 17.293 7.46874C18.034 7.28415 18.6071 7.03948 18.9678 6.75488C20.7381 5.35764 20.8628 3.59044 20.1084 2.54199Z" fill="black"/>
</g>
<defs>
<clipPath id="clip0_495_288">
<rect width="24" height="26" fill="white" transform="translate(0.5)"/>
</clipPath>
</defs>
</svg>
