<svg width="10" height="9" viewBox="0 0 10 9" fill="none" xmlns="http://www.w3.org/2000/svg">
<path d="M2.4502 0.5H7.5498C7.81957 0.5 7.99289 0.500133 8.125 0.510742C8.18767 0.515784 8.2309 0.523231 8.26172 0.530273L8.32324 0.550781C8.38592 0.581262 8.4416 0.623974 8.48633 0.676758L8.52734 0.733398C8.54227 0.757076 8.56502 0.803268 8.58887 0.926758C8.61395 1.05679 8.63334 1.22843 8.66309 1.49609L9.30273 7.25586C9.33903 7.58246 9.36246 7.79565 9.36621 7.95801C9.36802 8.03665 9.36469 8.09057 9.35938 8.12793L9.34082 8.19922C9.30859 8.27325 9.25943 8.33836 9.19727 8.38867L9.13184 8.43359C9.1064 8.4482 9.05089 8.4716 8.89453 8.48535C8.73281 8.49956 8.51889 8.5 8.19043 8.5H1.80957C1.48111 8.5 1.26719 8.49956 1.10547 8.48535C1.0272 8.47847 0.974036 8.46936 0.9375 8.45996L0.868164 8.43359C0.798389 8.39351 0.739373 8.33755 0.696289 8.27051L0.65918 8.19922C0.647476 8.17226 0.630194 8.1146 0.633789 7.95801C0.635663 7.87687 0.64253 7.78317 0.65332 7.66895L0.697266 7.25586L1.33691 1.49609C1.36665 1.22842 1.38605 1.05679 1.41113 0.926758C1.43501 0.803143 1.45773 0.757055 1.47266 0.733398C1.50995 0.674341 1.55864 0.623624 1.61621 0.584961L1.67676 0.550781C1.70195 0.538567 1.74981 0.520804 1.875 0.510742C2.00711 0.500133 2.18043 0.5 2.4502 0.5Z" stroke="black"/>
</svg>
